/* XPM */
static char * exit_icon_xpm[] = {
"24 24 3 1",
" 	c None",
".	c #FEFEFE",
"+	c #FFFFFF",
"                        ",
"                        ",
"                        ",
"                        ",
"                        ",
"    .+++.     .+++.     ",
"     .+++     +++.      ",
"      .++.   .++.       ",
"      .+++. .+++.       ",
"       .+++.+++.        ",
"        .+++++.         ",
"         +++++          ",
"         .+++.          ",
"        .+++++.         ",
"        +++++++         ",
"       .++. .++.        ",
"      .+++. .+++.       ",
"      +++.   .+++       ",
"     .+++     +++.      ",
"    .+++.     .+++.     ",
"                        ",
"                        ",
"                        ",
"                        "};
